<svg width="617" height="617" viewBox="0 0 617 617" fill="none" xmlns="http://www.w3.org/2000/svg">
<g clip-path="url(#clip0_166_2)">
<rect width="617" height="617" fill="white"/>
<g clip-path="url(#clip1_166_2)">
<path d="M618.375 -1.375H-0.375V617.375H618.375V-1.375Z" fill="#C80B13"/>
<path d="M558.898 481.25H57.727C52.9957 481.25 49.125 475.672 49.125 468.854V445.521C49.125 438.703 52.9957 433.125 57.727 433.125H558.898C563.629 433.125 567.5 438.703 567.5 445.521V468.854C567.499 475.672 563.628 481.25 558.898 481.25Z" fill="#FFDD00"/>
<path d="M558.898 463.375H57.727C52.9957 463.375 49.125 459.869 49.125 455.583V440.917C49.125 436.631 52.9957 433.125 57.727 433.125H558.898C563.629 433.125 567.5 436.631 567.5 440.917V455.583C567.499 459.869 563.628 463.375 558.898 463.375Z" fill="#CEB200"/>
<path d="M599.125 446.27H18.875V9.625H599.125V446.27ZM100.681 361.935H517.319V95.5579H100.681V361.935Z" fill="black"/>
<path d="M599.125 446.27H18.875V9.625H599.125V446.27ZM100.681 361.935H517.319V95.5579H100.681V361.935Z" fill="#ED1B24"/>
<path d="M486.081 125.084H135.335V329.009H486.081V125.084Z" fill="white"/>
<path d="M486.081 125.084H135.335V183.659H486.081V125.084Z" fill="#FFDD00"/>
<path d="M479.089 273.609H128.339V332.179H479.089V273.609Z" fill="#FFDD00"/>
<path d="M118.96 113.019V345.403H497.347V113.019H118.96ZM251.586 308.523H155.5V147.64H251.586V308.523ZM356.473 308.523H260.384V147.64H356.473V308.523ZM461.359 308.523H365.265V147.64H461.359V308.523Z" fill="#ED1B24"/>
<path d="M100.679 95.5581V361.935H517.318V95.5581H100.679ZM498.393 345.405H120.012V113.02H498.393V345.405Z" fill="#821D21"/>
<path d="M517.321 95.5577V361.934L564.228 408.845V47.0532L517.321 95.5577Z" fill="#A61319"/>
<path d="M100.681 361.934V95.5577L53.774 47.0532V408.845L100.681 361.934Z" fill="#A61319"/>
<path d="M53.774 47.0532L100.681 95.5577H517.319L564.226 47.0532H53.774Z" fill="#CE4349"/>
<path d="M517.319 361.935H100.681L53.774 408.846H564.226L517.319 361.935Z" fill="#E34E50"/>
<path d="M462.005 145.511H365.914C364.373 145.511 363.124 146.762 363.124 148.308V309.188C363.124 310.739 364.373 311.984 365.914 311.984H462.005C463.542 311.984 464.793 310.739 464.793 309.188V148.308C464.793 146.762 463.54 145.511 462.005 145.511ZM459.211 306.398H368.712V151.104H459.211V306.398Z" fill="#538CB7"/>
<path d="M462.004 147.181H365.912C365.295 147.181 364.797 147.68 364.797 148.308V309.188C364.797 309.818 365.295 310.313 365.912 310.313H462.004C462.617 310.313 463.121 309.818 463.121 309.188V148.308C463.121 147.68 462.617 147.181 462.004 147.181ZM460.881 308.08H367.023V149.416H460.881V308.08Z" fill="#CEDBE1"/>
<path d="M356.966 145.511H260.881C259.334 145.511 258.087 146.762 258.087 148.308V309.188C258.087 310.739 259.334 311.984 260.881 311.984H356.966C358.511 311.984 359.764 310.739 359.764 309.188V148.308C359.764 146.762 358.511 145.511 356.966 145.511ZM354.18 306.398H263.673V151.104H354.18V306.398Z" fill="#538CB7"/>
<path d="M356.966 147.181H260.88C260.263 147.181 259.764 147.68 259.764 148.308V309.188C259.764 309.818 260.263 310.313 260.88 310.313H356.966C357.587 310.313 358.087 309.818 358.087 309.188V148.308C358.087 147.68 357.585 147.181 356.966 147.181ZM355.847 308.08H261.995V149.416H355.847V308.08Z" fill="#CEDBE1"/>
<path d="M252.084 145.511H155.999C154.456 145.511 153.205 146.762 153.205 148.308V309.188C153.205 310.739 154.456 311.984 155.999 311.984H252.084C253.631 311.984 254.876 310.739 254.876 309.188V148.308C254.876 146.762 253.631 145.511 252.084 145.511ZM249.296 306.398H158.793V151.104H249.296V306.398Z" fill="#A61319"/>
<path d="M252.084 147.181H155.999C155.379 147.181 154.882 147.68 154.882 148.308V309.188C154.882 309.818 155.379 310.313 155.999 310.313H252.084C252.705 310.313 253.209 309.818 253.209 309.188V148.308C253.209 147.68 252.703 147.181 252.084 147.181ZM250.969 308.08H157.113V149.416H250.969V308.08Z" fill="#CEDBE1"/>
<path d="M498.195 346.343H119.807C118.101 346.343 116.707 344.951 116.707 343.244V110.859C116.707 109.148 118.101 107.761 119.807 107.761H498.195C499.903 107.761 501.293 109.148 501.293 110.859V343.246C501.293 344.951 499.903 346.343 498.195 346.343ZM122.919 340.131H495.088V113.966H122.919V340.131Z" fill="#A61319"/>
<path d="M498.194 344.356H119.807C119.194 344.356 118.694 343.85 118.694 343.245V110.858C118.694 110.241 119.194 109.744 119.807 109.744H498.194C498.811 109.744 499.31 110.241 499.31 110.858V343.245C499.31 343.85 498.811 344.356 498.194 344.356ZM120.932 342.118H497.077V111.981H120.932V342.118Z" fill="#CEDBE1"/>
<path d="M112.705 36.4442H110.952C106.525 36.4442 102.937 32.8586 102.937 28.4332C102.937 24.0079 106.525 20.4202 110.952 20.4202H112.705C117.13 20.4202 120.718 24.0079 120.718 28.4332C120.716 32.8586 117.13 36.4442 112.705 36.4442Z" fill="#FFDD00"/>
<path d="M37.0411 183.097H35.2882C30.8608 183.097 27.2731 179.511 27.2731 175.086C27.2731 170.66 30.8608 167.073 35.2882 167.073H37.0411C41.4665 167.073 45.0542 170.66 45.0542 175.086C45.0521 179.511 41.4665 183.097 37.0411 183.097Z" fill="#FFDD00"/>
<path d="M37.0409 210.389H35.288C30.8606 210.389 27.2729 206.803 27.2729 202.378C27.2729 197.952 30.8606 194.365 35.288 194.365H37.0409C41.4662 194.365 45.054 197.952 45.054 202.378C45.0519 206.803 41.4662 210.389 37.0409 210.389Z" fill="#FFDD00"/>
<path d="M37.0411 237.679H35.2882C30.8608 237.679 27.2731 234.093 27.2731 229.668C27.2731 225.242 30.8608 221.655 35.2882 221.655H37.0411C41.4665 221.655 45.0542 225.242 45.0542 229.668C45.0521 234.093 41.4665 237.679 37.0411 237.679Z" fill="#FFDD00"/>
<path d="M37.0411 264.972H35.2882C30.8608 264.972 27.2731 261.386 27.2731 256.961C27.2731 252.536 30.8608 248.948 35.2882 248.948H37.0411C41.4665 248.948 45.0542 252.536 45.0542 256.961C45.0521 261.386 41.4665 264.972 37.0411 264.972Z" fill="#FFDD00"/>
<path d="M37.0411 292.261H35.2882C30.8608 292.261 27.2731 288.675 27.2731 284.25C27.2731 279.824 30.8608 276.237 35.2882 276.237H37.0411C41.4665 276.237 45.0542 279.824 45.0542 284.25C45.0521 288.675 41.4665 292.261 37.0411 292.261Z" fill="#FFDD00"/>
<path d="M37.0411 319.553H35.2882C30.8608 319.553 27.2731 315.967 27.2731 311.542C27.2731 307.117 30.8608 303.529 35.2882 303.529H37.0411C41.4665 303.529 45.0542 307.117 45.0542 311.542C45.0521 315.967 41.4665 319.553 37.0411 319.553Z" fill="#FFDD00"/>
<path d="M37.0411 346.843H35.2882C30.8608 346.843 27.2731 343.257 27.2731 338.832C27.2731 334.407 30.8608 330.819 35.2882 330.819H37.0411C41.4665 330.819 45.0542 334.407 45.0542 338.832C45.0521 343.257 41.4665 346.843 37.0411 346.843Z" fill="#FFDD00"/>
<path d="M37.0409 374.132H35.288C30.8606 374.132 27.2729 370.546 27.2729 366.121C27.2729 361.695 30.8606 358.108 35.288 358.108H37.0409C41.4662 358.108 45.054 361.695 45.054 366.121C45.0519 370.546 41.4662 374.132 37.0409 374.132Z" fill="#FFDD00"/>
<path d="M37.0409 401.427H35.288C30.8606 401.427 27.2729 397.841 27.2729 393.416C27.2729 388.99 30.8606 385.403 35.288 385.403H37.0409C41.4662 385.403 45.054 388.99 45.054 393.416C45.0519 397.841 41.4662 401.427 37.0409 401.427Z" fill="#FFDD00"/>
<path d="M45.4388 435.014H43.6859C39.2584 435.014 35.6707 431.428 35.6707 427.003C35.6707 422.577 39.2584 418.99 43.6859 418.99H45.4388C49.8641 418.99 53.4518 422.577 53.4518 427.003C53.4497 431.428 49.8641 435.014 45.4388 435.014Z" fill="#FFDD00"/>
<path d="M74.8294 435.014H73.0765C68.649 435.014 65.0613 431.428 65.0613 427.003C65.0613 422.577 68.649 418.99 73.0765 418.99H74.8294C79.2547 418.99 82.8424 422.577 82.8424 427.003C82.8403 431.428 79.2547 435.014 74.8294 435.014Z" fill="#FFDD00"/>
<path d="M104.219 435.014H102.466C98.0385 435.014 94.4508 431.428 94.4508 427.003C94.4508 422.577 98.0385 418.99 102.466 418.99H104.219C108.644 418.99 112.232 422.577 112.232 427.003C112.23 431.428 108.644 435.014 104.219 435.014Z" fill="#FFDD00"/>
<path d="M133.607 435.014H131.854C127.427 435.014 123.839 431.428 123.839 427.003C123.839 422.577 127.427 418.99 131.854 418.99H133.607C138.032 418.99 141.62 422.577 141.62 427.003C141.618 431.428 138.032 435.014 133.607 435.014Z" fill="#FFDD00"/>
<path d="M162.998 435.014H161.245C156.817 435.014 153.23 431.428 153.23 427.003C153.23 422.577 156.817 418.99 161.245 418.99H162.998C167.423 418.99 171.011 422.577 171.011 427.003C171.009 431.428 167.423 435.014 162.998 435.014Z" fill="#FFDD00"/>
<path d="M192.388 435.014H190.635C186.208 435.014 182.62 431.428 182.62 427.003C182.62 422.577 186.208 418.99 190.635 418.99H192.388C196.814 418.99 200.401 422.577 200.401 427.003C200.399 431.428 196.814 435.014 192.388 435.014Z" fill="#FFDD00"/>
<path d="M221.779 435.014H220.026C215.599 435.014 212.011 431.428 212.011 427.003C212.011 422.577 215.599 418.99 220.026 418.99H221.779C226.204 418.99 229.792 422.577 229.792 427.003C229.79 431.428 226.204 435.014 221.779 435.014Z" fill="#FFDD00"/>
<path d="M251.17 435.014H249.417C244.989 435.014 241.402 431.428 241.402 427.003C241.402 422.577 244.989 418.99 249.417 418.99H251.17C255.595 418.99 259.183 422.577 259.183 427.003C259.181 431.428 255.595 435.014 251.17 435.014Z" fill="#FFDD00"/>
<path d="M280.559 435.014H278.806C274.379 435.014 270.791 431.428 270.791 427.003C270.791 422.577 274.379 418.99 278.806 418.99H280.559C284.985 418.99 288.572 422.577 288.572 427.003C288.57 431.428 284.985 435.014 280.559 435.014Z" fill="#FFDD00"/>
<path d="M309.95 435.014H308.197C303.77 435.014 300.182 431.428 300.182 427.003C300.182 422.577 303.77 418.99 308.197 418.99H309.95C314.375 418.99 317.963 422.577 317.963 427.003C317.961 431.428 314.375 435.014 309.95 435.014Z" fill="#FFDD00"/>
<path d="M339.34 435.014H337.588C333.16 435.014 329.572 431.428 329.572 427.003C329.572 422.577 333.16 418.99 337.588 418.99H339.34C343.766 418.99 347.354 422.577 347.354 427.003C347.351 431.428 343.766 435.014 339.34 435.014Z" fill="#FFDD00"/>
<path d="M368.731 435.014H366.978C362.551 435.014 358.963 431.428 358.963 427.003C358.963 422.577 362.551 418.99 366.978 418.99H368.731C373.156 418.99 376.744 422.577 376.744 427.003C376.742 431.428 373.156 435.014 368.731 435.014Z" fill="#FFDD00"/>
<path d="M398.121 435.014H396.368C391.94 435.014 388.353 431.428 388.353 427.003C388.353 422.577 391.94 418.99 396.368 418.99H398.121C402.546 418.99 406.134 422.577 406.134 427.003C406.132 431.428 402.546 435.014 398.121 435.014Z" fill="#FFDD00"/>
<path d="M427.511 435.014H425.758C421.331 435.014 417.743 431.428 417.743 427.003C417.743 422.577 421.331 418.99 425.758 418.99H427.511C431.937 418.99 435.524 422.577 435.524 427.003C435.522 431.428 431.937 435.014 427.511 435.014Z" fill="#FFDD00"/>
<path d="M456.902 435.014H455.149C450.721 435.014 447.134 431.428 447.134 427.003C447.134 422.577 450.721 418.99 455.149 418.99H456.902C461.327 418.99 464.915 422.577 464.915 427.003C464.913 431.428 461.327 435.014 456.902 435.014Z" fill="#FFDD00"/>
<path d="M486.292 435.014H484.539C480.112 435.014 476.524 431.428 476.524 427.003C476.524 422.577 480.112 418.99 484.539 418.99H486.292C490.718 418.99 494.305 422.577 494.305 427.003C494.303 431.428 490.718 435.014 486.292 435.014Z" fill="#FFDD00"/>
<path d="M515.682 435.014H513.929C509.501 435.014 505.914 431.428 505.914 427.003C505.914 422.577 509.501 418.99 513.929 418.99H515.682C520.107 418.99 523.695 422.577 523.695 427.003C523.693 431.428 520.107 435.014 515.682 435.014Z" fill="#FFDD00"/>
<path d="M545.074 435.014H543.321C538.893 435.014 535.306 431.428 535.306 427.003C535.306 422.577 538.893 418.99 543.321 418.99H545.074C549.499 418.99 553.087 422.577 553.087 427.003C553.085 431.428 549.499 435.014 545.074 435.014Z" fill="#FFDD00"/>
<path d="M142.006 36.1466H140.253C135.826 36.1466 132.238 32.5609 132.238 28.1356C132.238 23.7103 135.826 20.1226 140.253 20.1226H142.006C146.432 20.1226 150.019 23.7103 150.019 28.1356C150.017 32.5609 146.432 36.1466 142.006 36.1466Z" fill="#FFDD00"/>
<path d="M171.396 36.1466H169.643C165.215 36.1466 161.628 32.5609 161.628 28.1356C161.628 23.7103 165.215 20.1226 169.643 20.1226H171.396C175.821 20.1226 179.409 23.7103 179.409 28.1356C179.407 32.5609 175.821 36.1466 171.396 36.1466Z" fill="#FFDD00"/>
<path d="M200.785 36.1466H199.032C194.605 36.1466 191.017 32.5609 191.017 28.1356C191.017 23.7103 194.605 20.1226 199.032 20.1226H200.785C205.211 20.1226 208.798 23.7103 208.798 28.1356C208.796 32.5609 205.211 36.1466 200.785 36.1466Z" fill="#FFDD00"/>
<path d="M230.177 36.1466H228.424C223.997 36.1466 220.409 32.5609 220.409 28.1356C220.409 23.7103 223.997 20.1226 228.424 20.1226H230.177C234.602 20.1226 238.19 23.7103 238.19 28.1356C238.188 32.5609 234.602 36.1466 230.177 36.1466Z" fill="#FFDD00"/>
<path d="M259.568 36.1466H257.815C253.387 36.1466 249.8 32.5609 249.8 28.1356C249.8 23.7103 253.387 20.1226 257.815 20.1226H259.568C263.993 20.1226 267.581 23.7103 267.581 28.1356C267.579 32.5609 263.993 36.1466 259.568 36.1466Z" fill="#FFDD00"/>
<path d="M288.957 36.1466H287.204C282.777 36.1466 279.189 32.5609 279.189 28.1356C279.189 23.7103 282.777 20.1226 287.204 20.1226H288.957C293.383 20.1226 296.97 23.7103 296.97 28.1356C296.968 32.5609 293.383 36.1466 288.957 36.1466Z" fill="#FFDD00"/>
<path d="M318.348 36.1466H316.595C312.168 36.1466 308.58 32.5609 308.58 28.1356C308.58 23.7103 312.168 20.1226 316.595 20.1226H318.348C322.773 20.1226 326.361 23.7103 326.361 28.1356C326.359 32.5609 322.773 36.1466 318.348 36.1466Z" fill="#FFDD00"/>
<path d="M347.737 36.1466H345.984C341.557 36.1466 337.969 32.5609 337.969 28.1356C337.969 23.7103 341.557 20.1226 345.984 20.1226H347.737C352.162 20.1226 355.75 23.7103 355.75 28.1356C355.748 32.5609 352.162 36.1466 347.737 36.1466Z" fill="#FFDD00"/>
<path d="M377.129 36.1466H375.376C370.949 36.1466 367.361 32.5609 367.361 28.1356C367.361 23.7103 370.949 20.1226 375.376 20.1226H377.129C381.554 20.1226 385.142 23.7103 385.142 28.1356C385.14 32.5609 381.554 36.1466 377.129 36.1466Z" fill="#FFDD00"/>
<path d="M406.518 36.1466H404.765C400.338 36.1466 396.75 32.5609 396.75 28.1356C396.75 23.7103 400.338 20.1226 404.765 20.1226H406.518C410.944 20.1226 414.531 23.7103 414.531 28.1356C414.529 32.5609 410.944 36.1466 406.518 36.1466Z" fill="#FFDD00"/>
<path d="M435.909 36.1466H434.156C429.729 36.1466 426.141 32.5609 426.141 28.1356C426.141 23.7103 429.729 20.1226 434.156 20.1226H435.909C440.334 20.1226 443.922 23.7103 443.922 28.1356C443.92 32.5609 440.334 36.1466 435.909 36.1466Z" fill="#FFDD00"/>
<path d="M465.3 36.1466H463.547C459.119 36.1466 455.532 32.5609 455.532 28.1356C455.532 23.7103 459.119 20.1226 463.547 20.1226H465.3C469.725 20.1226 473.313 23.7103 473.313 28.1356C473.311 32.5609 469.725 36.1466 465.3 36.1466Z" fill="#FFDD00"/>
<path d="M494.688 36.1466H492.935C488.508 36.1466 484.92 32.5609 484.92 28.1356C484.92 23.7103 488.508 20.1226 492.935 20.1226H494.688C499.113 20.1226 502.701 23.7103 502.701 28.1356C502.699 32.5609 499.113 36.1466 494.688 36.1466Z" fill="#FFDD00"/>
<path d="M524.079 36.1466H522.326C517.898 36.1466 514.31 32.5609 514.31 28.1356C514.31 23.7103 517.898 20.1226 522.326 20.1226H524.079C528.504 20.1226 532.092 23.7103 532.092 28.1356C532.089 32.5609 528.504 36.1466 524.079 36.1466Z" fill="#FFDD00"/>
<path d="M553.469 36.1466H551.716C547.289 36.1466 543.701 32.5609 543.701 28.1356C543.701 23.7103 547.289 20.1226 551.716 20.1226H553.469C557.894 20.1226 561.482 23.7103 561.482 28.1356C561.48 32.5609 557.894 36.1466 553.469 36.1466Z" fill="#FFDD00"/>
<path d="M582.86 36.1466H581.107C576.679 36.1466 573.092 32.5609 573.092 28.1356C573.092 23.7103 576.679 20.1226 581.107 20.1226H582.86C587.285 20.1226 590.873 23.7103 590.873 28.1356C590.871 32.5609 587.285 36.1466 582.86 36.1466Z" fill="#FFDD00"/>
<path d="M584.959 73.9342H583.207C578.779 73.9342 575.191 70.3485 575.191 65.9232C575.191 61.4979 578.779 57.9102 583.207 57.9102H584.959C589.385 57.9102 592.973 61.4979 592.973 65.9232C592.97 70.3485 589.385 73.9342 584.959 73.9342Z" fill="#FFDD00"/>
<path d="M584.959 103.324H583.206C578.779 103.324 575.191 99.7379 575.191 95.3126C575.191 90.8873 578.779 87.2996 583.206 87.2996H584.959C589.385 87.2996 592.972 90.8873 592.972 95.3126C592.97 99.7379 589.385 103.324 584.959 103.324Z" fill="#FFDD00"/>
<path d="M584.959 132.714H583.206C578.779 132.714 575.191 129.129 575.191 124.703C575.191 120.278 578.779 116.69 583.206 116.69H584.959C589.385 116.69 592.972 120.278 592.972 124.703C592.97 129.129 589.385 132.714 584.959 132.714Z" fill="#FFDD00"/>
<path d="M584.959 162.102H583.206C578.779 162.102 575.191 158.517 575.191 154.091C575.191 149.666 578.779 146.078 583.206 146.078H584.959C589.385 146.078 592.972 149.666 592.972 154.091C592.97 158.517 589.385 162.102 584.959 162.102Z" fill="#FFDD00"/>
<path d="M584.959 191.493H583.206C578.779 191.493 575.191 187.907 575.191 183.482C575.191 179.057 578.779 175.469 583.206 175.469H584.959C589.385 175.469 592.972 179.057 592.972 183.482C592.97 187.907 589.385 191.493 584.959 191.493Z" fill="#FFDD00"/>
<path d="M584.959 220.886H583.206C578.779 220.886 575.191 217.3 575.191 212.875C575.191 208.45 578.779 204.862 583.206 204.862H584.959C589.385 204.862 592.972 208.45 592.972 212.875C592.97 217.3 589.385 220.886 584.959 220.886Z" fill="#FFDD00"/>
<path d="M584.959 250.274H583.206C578.779 250.274 575.191 246.689 575.191 242.263C575.191 237.838 578.779 234.25 583.206 234.25H584.959C589.385 234.25 592.972 237.838 592.972 242.263C592.97 246.689 589.385 250.274 584.959 250.274Z" fill="#FFDD00"/>
<path d="M584.959 279.664H583.206C578.779 279.664 575.191 276.078 575.191 271.653C575.191 267.228 578.779 263.64 583.206 263.64H584.959C589.385 263.64 592.972 267.228 592.972 271.653C592.97 276.078 589.385 279.664 584.959 279.664Z" fill="#FFDD00"/>
<path d="M584.959 309.055H583.206C578.779 309.055 575.191 305.469 575.191 301.044C575.191 296.618 578.779 293.031 583.206 293.031H584.959C589.385 293.031 592.972 296.618 592.972 301.044C592.97 305.469 589.385 309.055 584.959 309.055Z" fill="#FFDD00"/>
<path d="M584.959 338.445H583.206C578.779 338.445 575.191 334.86 575.191 330.434C575.191 326.009 578.779 322.421 583.206 322.421H584.959C589.385 322.421 592.972 326.009 592.972 330.434C592.97 334.86 589.385 338.445 584.959 338.445Z" fill="#FFDD00"/>
<path d="M584.959 367.837H583.206C578.779 367.837 575.191 364.251 575.191 359.826C575.191 355.4 578.779 351.813 583.206 351.813H584.959C589.385 351.813 592.972 355.4 592.972 359.826C592.97 364.251 589.385 367.837 584.959 367.837Z" fill="#FFDD00"/>
<path d="M584.959 397.226H583.206C578.779 397.226 575.191 393.641 575.191 389.215C575.191 384.79 578.779 381.202 583.206 381.202H584.959C589.385 381.202 592.972 384.79 592.972 389.215C592.97 393.641 589.385 397.226 584.959 397.226Z" fill="#FFDD00"/>
<path d="M574.463 435.014H572.71C568.282 435.014 564.695 431.428 564.695 427.003C564.695 422.577 568.282 418.99 572.71 418.99H574.463C578.888 418.99 582.476 422.577 582.476 427.003C582.474 431.428 578.888 435.014 574.463 435.014Z" fill="#FFDD00"/>
<path d="M36.4332 77.6955C32.0079 77.6955 28.4223 74.1099 28.4223 69.6846V28.4332C28.4223 24.0079 32.0079 20.4202 36.4332 20.4202H56.3388C60.7642 20.4202 64.3519 24.0079 64.3519 28.4332C64.3519 32.8586 60.7642 36.4442 56.3388 36.4442H44.4463V69.6825C44.4442 74.1078 40.8586 77.6955 36.4332 77.6955Z" fill="#FFDD00"/>
<path d="M86.811 36.4442H79.5474C75.122 36.4442 71.5343 32.8586 71.5343 28.4332C71.5343 24.0079 75.1199 20.4202 79.5474 20.4202H86.811C91.2384 20.4202 94.824 24.0079 94.824 28.4332C94.824 32.8586 91.2384 36.4442 86.811 36.4442Z" fill="#FFDD00"/>
<path d="M36.4332 156.943C32.0079 156.943 28.4223 153.357 28.4223 148.932V94.9106C28.4223 90.4853 32.0079 86.8997 36.4332 86.8997C40.8586 86.8997 44.4442 90.4853 44.4442 94.9106V148.932C44.4442 153.357 40.8586 156.943 36.4332 156.943Z" fill="#FFDD00"/>
</g>
</g>
<defs>
<clipPath id="clip0_166_2">
<rect width="617" height="617" fill="white"/>
</clipPath>
<clipPath id="clip1_166_2">
<rect width="618.75" height="618.75" fill="white" transform="translate(-0.375 -1.375)"/>
</clipPath>
</defs>
</svg>
